<?xml version="1.0" encoding="utf-8"?>
<!-- Generator: Adobe Illustrator 18.0.0, SVG Export Plug-In . SVG Version: 6.00 Build 0)  -->
<!DOCTYPE svg PUBLIC "-//W3C//DTD SVG 1.1//EN" "http://www.w3.org/Graphics/SVG/1.1/DTD/svg11.dtd">
<svg version="1.1" id="Layer_1" xmlns="http://www.w3.org/2000/svg" xmlns:xlink="http://www.w3.org/1999/xlink" x="0px" y="0px"
	 viewBox="0 0 200 200" enable-background="new 0 0 200 200" xml:space="preserve">
<g>
	<path fill="#DF82A9" d="M25.8,136.9c13.6-11.9,31.4-19.1,50.9-19.1c5.1,0,10.3,0.5,15.3,1.5c1.7,0.3,2.8,2,2.5,3.7c0,0,0,0,0,0.1
		c10.8,2.6,20.6,7.6,28.9,14.4c0.1-0.1,0.2-0.2,0.3-0.3c1.3-1.1,3.3-1,4.4,0.3c1.1,1.2,1,3,0,4.2c0.8,0.8,1.7,1.6,2.5,2.5
		c0,0,0-13.9,0-13.9c-1.6-1.8-2.9-3.8-3.9-6c-2.9,3.2-7.1,5.3-11.7,5.3c-8.7,0-15.7-7-15.7-15.7c0-8.7,7-15.7,15.7-15.7
		c0.1,0,0.2,0,0.3,0c2.8-6,7.1-11.2,12.6-15c0.9-0.6,1.8-1.2,2.7-1.7v-7.4c-1.7,0-3.1-1.4-3.1-3.1v-12c0-28-22.8-50.7-50.7-50.7
		C48.7,7.9,26,30.7,26,58.7v68.5c0,1.7-1.4,3.1-3.1,3.1v9.4c0.8-0.8,1.6-1.5,2.4-2.3C25.4,137.2,25.6,137.1,25.8,136.9z M56.9,23.6
		c0.9-0.5,2-0.5,2.9-0.1c0.9,0.5,1.6,1.4,1.7,2.4c2.2,16.9,16.7,29.6,33.7,29.6c5.9,0,11.6-1.5,16.7-4.4c0.9-0.5,2-0.5,2.9-0.1
		c0.9,0.5,1.6,1.4,1.7,2.4c0.2,1.8,0.3,3.5,0.3,5.2C117,80.9,98.9,99,76.7,99c-22.2,0-40.3-18.1-40.3-40.3
		C36.4,44.2,44.3,30.8,56.9,23.6z"/>
	<path fill="#90B0A1" d="M136,150.4c-1.7-2.2-3.5-4.4-5.4-6.4c-0.8-0.8-1.6-1.7-2.5-2.5c-0.1,0.1-0.2,0.2-0.2,0.2
		c-14.1,12.5-32.3,19.4-51.2,19.4c-17.9,0-35.2-6.2-49-17.5c-13.6,13-22.1,31.3-22.1,51.5h97C102.6,174.1,116.7,156.2,136,150.4z"/>
	<path fill="#FDE4DF" d="M90.8,125.5c-4.6-0.9-9.3-1.4-14.1-1.4c-16.7,0-32.1,5.8-44.2,15.4c12.6,10,28.1,15.4,44.2,15.4
		c17.2,0,33.7-6.2,46.7-17.5c-8.3-6.8-18.2-11.7-28.9-14.4C94.1,124.7,92.5,125.8,90.8,125.5z"/>
	<path fill="#FDE4DF" d="M76.7,92.7c18.7,0,34-15.2,34-33.9c-4.9,2-10.1,3.1-15.4,3.1c-18.5,0-34.5-12.7-39-30.3
		C47.8,37.9,42.7,48,42.7,58.7C42.7,77.4,58,92.7,76.7,92.7z"/>
	<path fill="#422938" d="M76.7,99C98.9,99,117,80.9,117,58.7c0-1.7-0.1-3.4-0.3-5.2c-0.1-1-0.8-1.9-1.7-2.4c-0.9-0.5-2-0.4-2.9,0.1
		c-5.1,2.9-10.8,4.4-16.7,4.4c-17,0-31.5-12.7-33.7-29.6c-0.1-1-0.8-1.9-1.7-2.4c-0.9-0.5-2-0.4-2.9,0.1
		c-12.6,7.1-20.5,20.6-20.5,35.1C36.4,80.9,54.5,99,76.7,99z M56.3,31.5c4.5,17.6,20.5,30.3,39,30.3c5.3,0,10.6-1.1,15.4-3.1
		c0,18.7-15.3,33.9-34,33.9c-18.7,0-34-15.3-34-34C42.7,48,47.8,37.9,56.3,31.5z"/>
	<path fill="#422938" d="M27.7,143.7c13.8,11.3,31.1,17.5,49,17.5c18.9,0,37-6.9,51.2-19.4c0.1-0.1,0.2-0.2,0.2-0.2
		c1.1-1.2,1.1-3,0-4.2c-1.1-1.3-3.1-1.4-4.4-0.3c-0.1,0.1-0.2,0.2-0.3,0.3c-13,11.3-29.5,17.5-46.7,17.5c-16.1,0-31.6-5.5-44.2-15.4
		c12.1-9.7,27.5-15.4,44.2-15.4c4.7,0,9.5,0.5,14.1,1.4c1.7,0.3,3.3-0.7,3.7-2.4c0,0,0,0,0-0.1c0.3-1.7-0.8-3.4-2.5-3.7
		c-5-1-10.2-1.5-15.3-1.5c-19.5,0-37.3,7.2-50.9,19.1c-0.2,0.1-0.4,0.3-0.5,0.5c-0.8,0.7-1.6,1.5-2.4,2.3
		C8.3,153.7-0.7,173.4-0.7,195.2c0,1.7,1.4,3.1,3.1,3.1c1.7,0,3.1-1.4,3.1-3.1C5.6,174.9,14.1,156.6,27.7,143.7z"/>
	<path fill="#422938" d="M26,127.2V58.7c0-28,22.8-50.7,50.7-50.7c28,0,50.7,22.8,50.7,50.7v12c0,1.7,1.4,3.1,3.1,3.1
		c1.7,0,3.1-1.4,3.1-3.1v-12c0-31.4-25.6-57-57-57c-31.4,0-57,25.6-57,57v68.5c0,1.7,1.4,3.1,3.1,3.1C24.6,130.3,26,128.9,26,127.2z
		"/>
	<path fill="#D0E7DA" d="M149.3,154.8c-22.3,0-40.4,18.1-40.4,40.4h80.8C189.7,172.9,171.6,154.8,149.3,154.8z"/>
	<path fill="#422938" d="M149.3,148.5c-4.6,0-9.1,0.7-13.3,1.9c-19.3,5.7-33.4,23.6-33.4,44.7c0,1.7,1.4,3.1,3.1,3.1
		c1.7,0,3.1-1.4,3.1-3.1c0-22.3,18.1-40.4,40.4-40.4s40.4,18.1,40.4,40.4c0,1.7,1.4,3.1,3.1,3.1c1.7,0,3.1-1.4,3.1-3.1
		C196,169.5,175,148.5,149.3,148.5z"/>
	<path fill="#A2496F" d="M149.3,82.5c-12.8,0-24.5,8-29.1,20c-0.5,1.4-2,2.2-3.5,2c-0.6-0.1-1.2-0.2-1.7-0.2c-5.2,0-9.4,4.2-9.4,9.4
		c0,5.2,4.2,9.4,9.4,9.4c5.2,0,9.4-4.2,9.4-9.4c0-9,4.9-17.3,12.7-21.7c0.9-0.5,2-0.5,2.9-0.1c0.9,0.5,1.6,1.4,1.7,2.4
		c1.2,9.2,9.1,16.2,18.5,16.2c3.2,0,6.4-0.8,9.2-2.4c0.9-0.5,2-0.5,2.9-0.1c0.9,0.5,1.6,1.4,1.7,2.4c0.1,1.1,0.2,2.2,0.2,3.2
		c0,5.2,4.2,9.4,9.4,9.4c5.2,0,9.4-4.2,9.4-9.4c0-5.2-4.2-9.4-9.4-9.4c-0.6,0-1.2,0.1-1.7,0.2c-1.5,0.3-3-0.5-3.5-2
		C173.8,90.6,162.1,82.5,149.3,82.5z"/>
	<path fill="#422938" d="M115.3,98c-0.1,0-0.2,0-0.3,0c-8.7,0-15.7,7-15.7,15.7c0,8.7,7,15.7,15.7,15.7c4.7,0,8.8-2,11.7-5.3
		c1,2.2,2.3,4.2,3.9,6c4.6,5.2,11.3,8.5,18.7,8.5c10,0,18.7-5.9,22.6-14.5c2.9,3.2,7.1,5.3,11.7,5.3c8.7,0,15.7-7,15.7-15.7
		c0-8.8-7.2-15.9-16-15.7c-2.8-6-7.1-11.2-12.6-15c-6.3-4.4-13.7-6.7-21.4-6.7c-6.6,0-13,1.7-18.7,5c-0.9,0.5-1.8,1.1-2.7,1.7
		C122.4,86.8,118.1,92,115.3,98z M181.9,104.5c0.6-0.1,1.2-0.2,1.7-0.2c5.2,0,9.4,4.2,9.4,9.4c0,5.2-4.2,9.4-9.4,9.4
		c-5.2,0-9.4-4.2-9.4-9.4c0-1-0.1-2.1-0.2-3.2c-0.1-1-0.8-1.9-1.7-2.4c-0.9-0.5-2-0.4-2.9,0.1c-2.8,1.6-5.9,2.4-9.2,2.4
		c-9.3,0-17.3-7-18.5-16.2c-0.1-1-0.8-1.9-1.7-2.4c-0.9-0.5-2-0.4-2.9,0.1c-7.8,4.4-12.7,12.7-12.7,21.7c0,5.2-4.2,9.4-9.4,9.4
		c-5.2,0-9.4-4.2-9.4-9.4c0-5.2,4.2-9.4,9.4-9.4c0.6,0,1.2,0.1,1.7,0.2c1.5,0.3,3-0.5,3.5-2c4.6-12,16.3-20,29.1-20
		c12.8,0,24.5,8,29.1,20C178.9,103.9,180.4,104.7,181.9,104.5z M149.3,132.3c-10.3,0-18.6-8.4-18.6-18.6c0-5.2,2.2-10.2,6-13.7
		c3.4,9.8,12.8,16.8,23.6,16.8c2.6,0,5.2-0.4,7.6-1.2C166.8,125,158.9,132.3,149.3,132.3z"/>
	<path fill="#FDE4DF" d="M160.2,116.8c-10.8,0-20.2-6.9-23.6-16.8c-3.8,3.5-6,8.4-6,13.7c0,10.3,8.4,18.6,18.6,18.6
		c9.6,0,17.6-7.3,18.5-16.7C165.4,116.4,162.8,116.8,160.2,116.8z"/>
</g>
</svg>
