<?xml version="1.0" encoding="utf-8"?>
<!-- Generator: Adobe Illustrator 18.0.0, SVG Export Plug-In . SVG Version: 6.00 Build 0)  -->
<!DOCTYPE svg PUBLIC "-//W3C//DTD SVG 1.1//EN" "http://www.w3.org/Graphics/SVG/1.1/DTD/svg11.dtd">
<svg version="1.1" id="Layer_1" xmlns="http://www.w3.org/2000/svg" xmlns:xlink="http://www.w3.org/1999/xlink" x="0px" y="0px"
	 viewBox="0 0 169.5 200" enable-background="new 0 0 169.5 200" xml:space="preserve">
<g>
	<path fill="#D0E7DA" d="M3.8,180.9v6.4c1.8,0,3.2,1.4,3.2,3.2v3.2h155.3v-3.2c0-1.8,1.4-3.2,3.2-3.2c0,0,0-6.4,0-6.4
		C165.5,180.9,3.8,180.9,3.8,180.9z"/>
	<path fill="#FFFFFF" d="M162.3,48.9h-18.8c-1.8,0-3.2-1.4-3.2-3.2h-6.4c0,1.8-1.4,3.2-3.2,3.2H6.9v125.5h155.3V48.9z M115.6,110.8
		c-0.8,1.6-2.7,2.2-4.3,1.3c0,0-0.1-0.1-0.1-0.1c-1.2,1.8-2.6,3.5-4.1,5c0,0,0.1,0.1,0.1,0.1c1.1,1.4,0.9,3.4-0.5,4.5
		c-3.7,3-8,5.3-12.5,6.6v5.7h7.6c1.8,0,3.2,1.4,3.2,3.2v12.8c0,1.8-1.4,3.2-3.2,3.2h-7.6v7.6c0,1.8-1.4,3.2-3.2,3.2H78.2
		c-1.8,0-3.2-1.4-3.2-3.2v-7.6h-7.6c-1.8,0-3.2-1.4-3.2-3.2v-12.8c0-1.8,1.4-3.2,3.2-3.2H75v-5.7c-14.9-4.2-25.4-18-25.4-33.7
		c0-19.3,15.7-35,35-35c19.3,0,35,15.7,35,35C119.6,100.2,118.2,105.8,115.6,110.8z"/>
	<path fill="#FFFFFF" d="M84.6,78.7c-8.7,0-15.8,7.1-15.8,15.8c0,8.7,7.1,15.8,15.8,15.8c8.7,0,15.8-7.1,15.8-15.8
		C100.4,85.8,93.3,78.7,84.6,78.7z"/>
	<path fill="#D66194" d="M143.5,42.6h18.8V19.1h-13.8v7.4c0,1.8-1.4,3.2-3.2,3.2c-1.8,0-3.2-1.4-3.2-3.2v-7.4h-34v9.6
		c0,1.8-1.4,3.2-3.2,3.2c-1.8,0-3.2-1.4-3.2-3.2v-9.6h-34v9.6c0,1.8-1.4,3.2-3.2,3.2c-1.8,0-3.2-1.4-3.2-3.2v-9.6h-34v9.6
		c0,1.8-1.4,3.2-3.2,3.2c-1.8,0-3.2-1.4-3.2-3.2v-9.6H6.9v23.4h123.8c1.8,0,3.2,1.4,3.2,3.2h6.4C140.3,44,141.7,42.6,143.5,42.6z"/>
	<path fill="#422938" d="M162.3,190.4v3.2H6.9v-3.2c0-1.8-1.4-3.2-3.2-3.2c-1.8,0-3.2,1.4-3.2,3.2v6.4c0,1.8,1.4,3.2,3.2,3.2h161.7
		c1.8,0,3.2-1.4,3.2-3.2v-6.4c0-1.8-1.4-3.2-3.2-3.2C163.7,187.2,162.3,188.7,162.3,190.4z"/>
	<path fill="#422938" d="M165.5,12.8h-17V3.2c0-1.8-1.4-3.2-3.2-3.2c-1.8,0-3.2,1.4-3.2,3.2v9.6h-34V3.2c0-1.8-1.4-3.2-3.2-3.2
		c-1.8,0-3.2,1.4-3.2,3.2v9.6h-34V3.2c0-1.8-1.4-3.2-3.2-3.2c-1.8,0-3.2,1.4-3.2,3.2v9.6h-34V3.2C27.2,1.4,25.7,0,24,0
		c-1.8,0-3.2,1.4-3.2,3.2v9.6h-17c-1.8,0-3.2,1.4-3.2,3.2v161.7c0,1.8,1.4,3.2,3.2,3.2h161.7c1.8,0,3.2-1.4,3.2-3.2V16
		C168.6,14.2,167.2,12.8,165.5,12.8z M6.9,48.9h123.8c1.8,0,3.2-1.4,3.2-3.2c0-1.8-1.4-3.2-3.2-3.2H6.9V19.1h13.8v9.6
		c0,1.8,1.4,3.2,3.2,3.2c1.8,0,3.2-1.4,3.2-3.2v-9.6h34v9.6c0,1.8,1.4,3.2,3.2,3.2c1.8,0,3.2-1.4,3.2-3.2v-9.6h34v9.6
		c0,1.8,1.4,3.2,3.2,3.2c1.8,0,3.2-1.4,3.2-3.2v-9.6h34v7.4c0,1.8,1.4,3.2,3.2,3.2c1.8,0,3.2-1.4,3.2-3.2v-7.4h13.8v23.4h-18.8
		c-1.8,0-3.2,1.4-3.2,3.2c0,1.8,1.4,3.2,3.2,3.2h18.8v125.5H6.9V48.9z"/>
	<path fill="#E5B1CE" d="M110,107.8c2.2-4.1,3.3-8.6,3.3-13.3c0-15.8-12.8-28.6-28.6-28.6C68.8,66,56,78.8,56,94.6
		c0,13.5,9.6,25.3,22.9,28c1.5,0.3,2.6,1.6,2.6,3.1v11.4c0,1.8-1.4,3.2-3.2,3.2h-7.6v6.4h7.6c1.8,0,3.2,1.4,3.2,3.2v7.6h6.4v-7.6
		c0-1.8,1.4-3.2,3.2-3.2h7.6v-6.4H91c-1.8,0-3.2-1.4-3.2-3.2v-11.4c0-1.5,1.1-2.8,2.6-3.1c4.5-0.9,8.7-2.9,12.3-5.9
		c1.3-1.1,3.3-0.9,4.4,0.3c1.5-1.5,2.9-3.2,4.1-5C109.7,111.2,109.2,109.3,110,107.8z M84.6,116.8c-12.3,0-22.2-10-22.2-22.2
		c0-12.3,10-22.2,22.2-22.2c12.3,0,22.2,10,22.2,22.2C106.8,106.8,96.9,116.8,84.6,116.8z"/>
	<path fill="#422938" d="M84.6,59.6c-19.3,0-35,15.7-35,35c0,15.7,10.5,29.4,25.4,33.7v5.7h-7.6c-1.8,0-3.2,1.4-3.2,3.2v12.8
		c0,1.8,1.4,3.2,3.2,3.2H75v7.6c0,1.8,1.4,3.2,3.2,3.2H91c1.8,0,3.2-1.4,3.2-3.2v-7.6h7.6c1.8,0,3.2-1.4,3.2-3.2v-12.8
		c0-1.8-1.4-3.2-3.2-3.2h-7.6v-5.7c4.6-1.3,8.8-3.5,12.5-6.6c1.4-1.1,1.6-3.1,0.5-4.5c0,0-0.1-0.1-0.1-0.1c-1.1-1.3-3.1-1.4-4.4-0.3
		c-3.6,2.9-7.8,4.9-12.3,5.9c-1.5,0.3-2.6,1.6-2.6,3.1v11.4c0,1.8,1.4,3.2,3.2,3.2h7.6v6.4H91c-1.8,0-3.2,1.4-3.2,3.2v7.6h-6.4v-7.6
		c0-1.8-1.4-3.2-3.2-3.2h-7.6v-6.4h7.6c1.8,0,3.2-1.4,3.2-3.2v-11.4c0-1.5-1.1-2.8-2.6-3.1c-13.2-2.7-22.9-14.5-22.9-28
		C56,78.8,68.8,66,84.6,66c15.8,0,28.6,12.8,28.6,28.6c0,4.7-1.1,9.1-3.3,13.3c-0.8,1.5-0.3,3.4,1.2,4.2c0,0,0.1,0.1,0.1,0.1
		c1.6,0.8,3.5,0.2,4.3-1.3c2.6-5,4-10.6,4-16.2C119.6,75.3,103.9,59.6,84.6,59.6z"/>
	<path fill="#422938" d="M84.6,72.3c-12.3,0-22.2,10-22.2,22.2c0,12.3,10,22.2,22.2,22.2c12.3,0,22.2-10,22.2-22.2
		C106.8,82.3,96.9,72.3,84.6,72.3z M84.6,110.4c-8.7,0-15.8-7.1-15.8-15.8c0-8.7,7.1-15.8,15.8-15.8c8.7,0,15.8,7.1,15.8,15.8
		C100.4,103.3,93.3,110.4,84.6,110.4z"/>
</g>
</svg>
