<?xml version="1.0" encoding="utf-8"?>
<!-- Generator: Adobe Illustrator 18.0.0, SVG Export Plug-In . SVG Version: 6.00 Build 0)  -->
<!DOCTYPE svg PUBLIC "-//W3C//DTD SVG 1.1//EN" "http://www.w3.org/Graphics/SVG/1.1/DTD/svg11.dtd">
<svg version="1.1" id="Layer_1" xmlns="http://www.w3.org/2000/svg" xmlns:xlink="http://www.w3.org/1999/xlink" x="0px" y="0px"
	 viewBox="0 0 144 200" enable-background="new 0 0 144 200" xml:space="preserve">
<g>
	<path fill="#D66194" d="M114,93.5c14.3-16.8,21.5-32.5,21.5-46.8c0-22.2-18.1-40.3-40.3-40.3c-7.6,0-15,2.1-21.5,6.2
		c-1,0.7-2.4,0.7-3.4,0c-6.4-4.1-13.9-6.2-21.5-6.2C26.6,6.4,8.5,24.5,8.5,46.7c0,15.6,8.6,33,25.7,51.5c12,13.1,24.6,23,29.5,26.7
		l1.7,1.3c0.8,0.6,1.3,1.5,1.3,2.6v25.7c0,1.8-1.4,3.2-3.2,3.2H41.2v10.6h22.3c1.8,0,3.2,1.4,3.2,3.2v22.2h10.6v-22.2
		c0-1.8,1.4-3.2,3.2-3.2h22.3v-10.6H80.5c-1.8,0-3.2-1.4-3.2-3.2v-25.7c0-1,0.5-1.9,1.3-2.6l1.7-1.3c4-3,14.5-11.2,25.2-22.1
		c1.2-1.3,3.2-1.3,4.5-0.1c0.7-0.8,1.5-1.5,2.2-2.3c0.7-0.8,1.4-1.6,2.1-2.4C113,96.9,112.8,94.9,114,93.5z M73.9,116.4
		c-0.6,0.4-1.2,0.6-1.9,0.6s-1.3-0.2-1.9-0.6c-8.5-6.4-50.9-39.8-50.9-69.7C19.1,30.3,32.5,17,48.8,17c9.1,0,17.6,4.2,23.2,11.2
		c5.6-7,14.1-11.2,23.2-11.2c16.4,0,29.7,13.3,29.7,29.7C124.9,76.6,82.4,110,73.9,116.4z"/>
	<path fill="#422938" d="M95.2,17c-9.1,0-17.6,4.2-23.2,11.2C66.4,21.2,57.9,17,48.8,17c-16.4,0-29.7,13.3-29.7,29.7
		c0,29.9,42.4,63.3,50.9,69.7c0.6,0.4,1.2,0.6,1.9,0.6s1.3-0.2,1.9-0.6c8.5-6.4,50.9-39.8,50.9-69.7C124.9,30.3,111.5,17,95.2,17z
		 M46.7,86.7c-13.9-15.1-21.2-28.9-21.2-40c0-12.9,10.5-23.3,23.3-23.3c8.5,0,16.3,4.6,20.4,12c0.6,1,1.6,1.6,2.8,1.6
		c1.2,0,2.2-0.6,2.8-1.6c4.1-7.4,11.9-12,20.4-12c12.9,0,23.3,10.5,23.3,23.3c0,11.1-7.3,24.9-21.2,40C87.5,97.4,77,106,72,109.8
		C67,106,56.5,97.4,46.7,86.7z"/>
	<path fill="#422938" d="M95.2,0C87,0,79.1,2.1,72,6.2C64.9,2.1,57,0,48.8,0C23.1,0,2.1,21,2.1,46.7c0,17.3,9.2,36.1,27.4,55.8
		C41.8,116,54.8,126.2,59.9,130l0.4,0.3v20.9H38c-1.8,0-3.2,1.4-3.2,3.2v17c0,1.8,1.4,3.2,3.2,3.2h22.3v22.2c0,1.8,1.4,3.2,3.2,3.2
		h17c1.8,0,3.2-1.4,3.2-3.2v-22.2H106c1.8,0,3.2-1.4,3.2-3.2v-17c0-1.8-1.4-3.2-3.2-3.2H83.7v-20.9l0.4-0.3
		c4.1-3.1,14.9-11.5,25.9-22.7c1.2-1.3,1.2-3.3,0-4.5c0,0,0,0,0,0c-1.3-1.2-3.3-1.2-4.5,0.1c-10.7,10.9-21.2,19.1-25.2,22.1
		l-1.7,1.3c-0.8,0.6-1.3,1.5-1.3,2.6v25.7c0,1.8,1.4,3.2,3.2,3.2h22.3v10.6H80.5c-1.8,0-3.2,1.4-3.2,3.2v22.2H66.7v-22.2
		c0-1.8-1.4-3.2-3.2-3.2H41.2v-10.6h22.3c1.8,0,3.2-1.4,3.2-3.2v-25.7c0-1-0.5-1.9-1.3-2.6l-1.7-1.3c-4.9-3.7-17.5-13.6-29.5-26.7
		C17.1,79.7,8.5,62.3,8.5,46.7c0-22.2,18.1-40.3,40.3-40.3c7.6,0,15,2.1,21.5,6.2c1,0.7,2.4,0.7,3.4,0c6.4-4.1,13.9-6.2,21.5-6.2
		c22.2,0,40.3,18.1,40.3,40.3c0,14.3-7.2,30-21.5,46.8c-1.1,1.3-1,3.3,0.3,4.5c0,0,0,0,0,0c1.3,1.1,3.4,1,4.5-0.4
		c15.3-18,23-35.1,23-50.9C141.9,21,120.9,0,95.2,0z"/>
</g>
</svg>
