<?xml version="1.0" encoding="utf-8"?>
<!-- Generator: Adobe Illustrator 18.0.0, SVG Export Plug-In . SVG Version: 6.00 Build 0)  -->
<!DOCTYPE svg PUBLIC "-//W3C//DTD SVG 1.1//EN" "http://www.w3.org/Graphics/SVG/1.1/DTD/svg11.dtd">
<svg version="1.1" id="Layer_1" xmlns="http://www.w3.org/2000/svg" xmlns:xlink="http://www.w3.org/1999/xlink" x="0px" y="0px"
	 viewBox="0 0 136 200" enable-background="new 0 0 136 200" xml:space="preserve">
<g>
	<path fill="#E5B1CE" d="M114.3,103.8c8-9.8,12.7-21.9,13.3-34.5l-10.7,0c-1.6,25.6-23,45.9-49,45.9S20.7,94.8,19,69.3l-10.7,0
		c1.5,28.4,23.2,52.1,51.5,56c1.6,0.2,2.8,1.6,2.8,3.2v26c0,1.8-1.4,3.2-3.2,3.2H37.2v10.6h22.3c1.8,0,3.2,1.4,3.2,3.2v22.2h10.6
		v-22.2c0-1.8,1.4-3.2,3.2-3.2h22.3v-10.6H76.5c-1.8,0-3.2-1.4-3.2-3.2v-26c0-1.6,1.2-2.9,2.8-3.2c10.9-1.5,21.1-5.9,29.6-12.9
		c1.3-1.1,3.3-0.9,4.4,0.4c1.6-1.4,3.1-2.9,4.5-4.5C113.4,107.1,113.2,105.1,114.3,103.8z"/>
	<path fill="#422938" d="M133.1,63.8c-0.6-0.6-1.4-0.9-2.3-0.9l-17,0c-1.8,0-3.2,1.4-3.2,3.2c0,23.5-19.1,42.7-42.7,42.7
		S25.3,89.6,25.3,66.1c0-1.8-1.4-3.2-3.2-3.2l-17,0c-0.8,0-1.7,0.3-2.3,0.9c-0.6,0.6-0.9,1.4-0.9,2.3c0,16.1,5.8,31.6,16.5,43.7
		c9.9,11.2,23.3,18.8,37.9,21.4v20.1H34c-1.8,0-3.2,1.4-3.2,3.2v17c0,1.8,1.4,3.2,3.2,3.2h22.3v22.2c0,1.8,1.4,3.2,3.2,3.2h17
		c1.8,0,3.2-1.4,3.2-3.2v-22.2H102c1.8,0,3.2-1.4,3.2-3.2v-17c0-1.8-1.4-3.2-3.2-3.2H79.7v-20.1c11-2,21.3-6.7,30-13.8
		c1.4-1.1,1.6-3.1,0.5-4.5c0,0,0,0-0.1-0.1c-1.1-1.3-3.1-1.5-4.4-0.4c-8.5,7-18.8,11.4-29.6,12.9c-1.6,0.2-2.8,1.6-2.8,3.2v26
		c0,1.8,1.4,3.2,3.2,3.2h22.3v10.6H76.5c-1.8,0-3.2,1.4-3.2,3.2v22.2H62.7v-22.2c0-1.8-1.4-3.2-3.2-3.2H37.2v-10.6h22.3
		c1.8,0,3.2-1.4,3.2-3.2v-26c0-1.6-1.2-2.9-2.8-3.2c-28.4-3.8-50-27.6-51.5-56l10.7,0c1.6,25.6,23,45.9,49,45.9s47.3-20.3,49-45.9
		l10.7,0c-0.7,12.6-5.4,24.7-13.3,34.5c-1.1,1.3-0.9,3.3,0.4,4.4c0,0,0,0,0.1,0.1c1.4,1.1,3.4,0.9,4.5-0.5
		c9.6-11.7,14.9-26.6,14.9-41.7C134.1,65.2,133.7,64.4,133.1,63.8z"/>
	<path fill="#D0E7DA" d="M51.4,33.1c1.8,0,3.2,1.4,3.2,3.2c0,1.8-1.4,3.2-3.2,3.2H38.1V48h13.3c1.8,0,3.2,1.4,3.2,3.2
		c0,1.8-1.4,3.2-3.2,3.2H38.1v8.5h13.3c1.8,0,3.2,1.4,3.2,3.2c0,1.8-1.4,3.2-3.2,3.2H38.3C39.9,84.3,52.6,96,68,96
		c15.4,0,28.1-11.7,29.7-26.7H84.6c-1.8,0-3.2-1.4-3.2-3.2c0-1.8,1.4-3.2,3.2-3.2h13.3v-8.5H84.6c-1.8,0-3.2-1.4-3.2-3.2
		c0-1.8,1.4-3.2,3.2-3.2h13.3v-8.5H84.6c-1.8,0-3.2-1.4-3.2-3.2c0-1.8,1.4-3.2,3.2-3.2h13.1C96.1,18.1,83.4,6.4,68,6.4
		c-15.4,0-28.1,11.7-29.7,26.7H51.4z"/>
	<path fill="#422938" d="M68,102.4c20,0,36.3-16.3,36.3-36.3V36.3C104.3,16.3,88,0,68,0C48,0,31.7,16.3,31.7,36.3v29.8
		C31.7,86.1,48,102.4,68,102.4z M68,6.4c15.4,0,28.1,11.7,29.7,26.7H84.6c-1.8,0-3.2,1.4-3.2,3.2c0,1.8,1.4,3.2,3.2,3.2h13.3V48
		H84.6c-1.8,0-3.2,1.4-3.2,3.2c0,1.8,1.4,3.2,3.2,3.2h13.3v8.5H84.6c-1.8,0-3.2,1.4-3.2,3.2c0,1.8,1.4,3.2,3.2,3.2h13.1
		C96.1,84.3,83.4,96,68,96c-15.4,0-28.1-11.7-29.7-26.7h13.1c1.8,0,3.2-1.4,3.2-3.2c0-1.8-1.4-3.2-3.2-3.2H38.1v-8.5h13.3
		c1.8,0,3.2-1.4,3.2-3.2c0-1.8-1.4-3.2-3.2-3.2H38.1v-8.5h13.3c1.8,0,3.2-1.4,3.2-3.2c0-1.8-1.4-3.2-3.2-3.2H38.3
		C39.9,18.1,52.6,6.4,68,6.4z"/>
</g>
</svg>
